<svg width="36" height="36" viewBox="0 0 36 36" fill="none" xmlns="http://www.w3.org/2000/svg">
<path d="M30 15C30 14.6022 29.842 14.2206 29.5607 13.9393C29.2794 13.658 28.8978 13.5 28.5 13.5C28.1022 13.5 27.7206 13.658 27.4393 13.9393C27.158 14.2206 27 14.6022 27 15H30ZM9 15C9 14.6022 8.84196 14.2206 8.56066 13.9393C8.27936 13.658 7.89782 13.5 7.5 13.5C7.10217 13.5 6.72064 13.658 6.43934 13.9393C6.15804 14.2206 6 14.6022 6 15H9ZM30.4395 19.0605C30.7224 19.3337 31.1013 19.4849 31.4946 19.4815C31.8879 19.4781 32.2641 19.3203 32.5422 19.0422C32.8203 18.7641 32.9781 18.3879 32.9815 17.9946C32.9849 17.6013 32.8337 17.2224 32.5605 16.9395L30.4395 19.0605ZM18 4.49998L19.0605 3.43948C18.7792 3.15828 18.3977 3.00031 18 3.00031C17.6023 3.00031 17.2208 3.15828 16.9395 3.43948L18 4.49998ZM3.4395 16.9395C3.29623 17.0779 3.18196 17.2434 3.10335 17.4264C3.02473 17.6094 2.98335 17.8062 2.98162 18.0054C2.97989 18.2046 3.01785 18.4021 3.09327 18.5864C3.16869 18.7708 3.28007 18.9382 3.42091 19.0791C3.56175 19.2199 3.72922 19.3313 3.91357 19.4067C4.09791 19.4821 4.29543 19.5201 4.4946 19.5184C4.69377 19.5166 4.8906 19.4753 5.07361 19.3966C5.25661 19.318 5.42213 19.2038 5.5605 19.0605L3.4395 16.9395ZM10.5 33H25.5V30H10.5V33ZM30 28.5V15H27V28.5H30ZM9 28.5V15H6V28.5H9ZM32.5605 16.9395L19.0605 3.43948L16.9395 5.56048L30.4395 19.0605L32.5605 16.9395ZM16.9395 3.43948L3.4395 16.9395L5.5605 19.0605L19.0605 5.56048L16.9395 3.43948ZM25.5 33C26.6935 33 27.8381 32.5259 28.682 31.682C29.5259 30.8381 30 29.6935 30 28.5H27C27 28.8978 26.842 29.2793 26.5607 29.5606C26.2794 29.842 25.8978 30 25.5 30V33ZM10.5 30C10.1022 30 9.72064 29.842 9.43934 29.5606C9.15804 29.2793 9 28.8978 9 28.5H6C6 29.6935 6.47411 30.8381 7.31802 31.682C8.16193 32.5259 9.30653 33 10.5 33V30Z" fill="#B9BDC6"/>
</svg>
