<svg width="160" height="12" viewBox="0 0 160 12" fill="none" xmlns="http://www.w3.org/2000/svg">
<path d="M1.47727 11.7955H0L4.27273 0.159091H5.72727L10 11.7955H8.52273L5.04545 2H4.95455L1.47727 11.7955ZM2.02273 7.25H7.97727V8.5H2.02273V7.25Z" fill="white"/>
<path d="M15.0125 11.7955V0.159091H16.4216V10.5455H21.8307V11.7955H15.0125Z" fill="white"/>
<path d="M27.2125 11.7955V0.159091H31.1443C32.0572 0.159091 32.8034 0.323864 33.383 0.653409C33.9663 0.979167 34.3981 1.42045 34.6784 1.97727C34.9587 2.53409 35.0989 3.1553 35.0989 3.84091C35.0989 4.52652 34.9587 5.14962 34.6784 5.71023C34.4019 6.27083 33.9739 6.7178 33.3943 7.05114C32.8148 7.38068 32.0723 7.54545 31.167 7.54545H28.3489V6.29545H31.1216C31.7466 6.29545 32.2485 6.1875 32.6273 5.97159C33.0061 5.75568 33.2807 5.46402 33.4511 5.09659C33.6254 4.72538 33.7125 4.30682 33.7125 3.84091C33.7125 3.375 33.6254 2.95833 33.4511 2.59091C33.2807 2.22348 33.0042 1.93561 32.6216 1.72727C32.239 1.51515 31.7314 1.40909 31.0989 1.40909H28.6216V11.7955H27.2125Z" fill="white"/>
<path d="M40.5687 11.7955V0.159091H41.9778V5.34091H48.1824V0.159091H49.5915V11.7955H48.1824V6.59091H41.9778V11.7955H40.5687Z" fill="white"/>
<path d="M56.0898 11.7955H54.6125L58.8852 0.159091H60.3398L64.6125 11.7955H63.1352L59.658 2H59.567L56.0898 11.7955ZM56.6352 7.25H62.5898V8.5H56.6352V7.25Z" fill="white"/>
<path d="M86.6886 3.79545H85.2795C85.1962 3.39015 85.0504 3.03409 84.842 2.72727C84.6375 2.42045 84.3875 2.16288 84.092 1.95455C83.8004 1.74242 83.4765 1.58333 83.1205 1.47727C82.7644 1.37121 82.3932 1.31818 82.0068 1.31818C81.3023 1.31818 80.664 1.49621 80.092 1.85227C79.5239 2.20833 79.0712 2.73295 78.7341 3.42614C78.4007 4.11932 78.2341 4.9697 78.2341 5.97727C78.2341 6.98485 78.4007 7.83523 78.7341 8.52841C79.0712 9.22159 79.5239 9.74621 80.092 10.1023C80.664 10.4583 81.3023 10.6364 82.0068 10.6364C82.3932 10.6364 82.7644 10.5833 83.1205 10.4773C83.4765 10.3712 83.8004 10.214 84.092 10.0057C84.3875 9.79356 84.6375 9.53409 84.842 9.22727C85.0504 8.91667 85.1962 8.56061 85.2795 8.15909H86.6886C86.5826 8.75379 86.3894 9.28598 86.1091 9.75568C85.8288 10.2254 85.4803 10.625 85.0636 10.9545C84.647 11.2803 84.1792 11.5284 83.6602 11.6989C83.1451 11.8693 82.5939 11.9545 82.0068 11.9545C81.0144 11.9545 80.1318 11.7121 79.3591 11.2273C78.5864 10.7424 77.9784 10.053 77.5352 9.15909C77.092 8.26515 76.8705 7.20455 76.8705 5.97727C76.8705 4.75 77.092 3.68939 77.5352 2.79545C77.9784 1.90152 78.5864 1.21212 79.3591 0.727273C80.1318 0.242424 81.0144 0 82.0068 0C82.5939 0 83.1451 0.0852273 83.6602 0.255682C84.1792 0.426137 84.647 0.676137 85.0636 1.00568C85.4803 1.33144 85.8288 1.72917 86.1091 2.19886C86.3894 2.66477 86.5826 3.19697 86.6886 3.79545Z" fill="white"/>
<path d="M92.6429 11.7955H91.1656L95.4384 0.159091H96.8929L101.166 11.7955H99.6884L96.2111 2H96.1202L92.6429 11.7955ZM93.1884 7.25H99.1429V8.5H93.1884V7.25Z" fill="white"/>
<path d="M106.178 11.7955V0.159091H110.11C111.023 0.159091 111.769 0.323864 112.349 0.653409C112.932 0.979167 113.364 1.42045 113.644 1.97727C113.924 2.53409 114.064 3.1553 114.064 3.84091C114.064 4.52652 113.924 5.14962 113.644 5.71023C113.368 6.27083 112.939 6.7178 112.36 7.05114C111.78 7.38068 111.038 7.54545 110.133 7.54545H107.314V6.29545H110.087C110.712 6.29545 111.214 6.1875 111.593 5.97159C111.972 5.75568 112.246 5.46402 112.417 5.09659C112.591 4.72538 112.678 4.30682 112.678 3.84091C112.678 3.375 112.591 2.95833 112.417 2.59091C112.246 2.22348 111.97 1.93561 111.587 1.72727C111.205 1.51515 110.697 1.40909 110.064 1.40909H107.587V11.7955H106.178Z" fill="white"/>
<path d="M120.943 0.159091V11.7955H119.534V0.159091H120.943Z" fill="white"/>
<path d="M126.332 1.40909V0.159091H135.06V1.40909H131.401V11.7955H129.991V1.40909H126.332Z" fill="white"/>
<path d="M139.552 11.7955H138.075L142.348 0.159091H143.802L148.075 11.7955H146.598L143.12 2H143.03L139.552 11.7955ZM140.098 7.25H146.052V8.5H140.098V7.25Z" fill="white"/>
<path d="M153.087 11.7955V0.159091H154.497V10.5455H159.906V11.7955H153.087Z" fill="white"/>
</svg>
